<svg width="128" height="128" viewBox="0 0 128 128" fill="none" xmlns="http://www.w3.org/2000/svg">
<g clip-path="url(#clip0_80_54)">
<path d="M12.8 64C12.8 35.776 35.776 12.8 64 12.8C92.224 12.8 115.2 35.776 115.2 64C115.2 92.224 92.224 115.2 64 115.2C35.776 115.2 12.8 92.224 12.8 64ZM-1.90735e-06 64C-1.90735e-06 99.328 28.672 128 64 128C99.328 128 128 99.328 128 64C128 28.672 99.328 0 64 0C28.672 0 -1.90735e-06 28.672 -1.90735e-06 64ZM64 57.6H38.4V70.4H64V89.6L89.6 64L64 38.4V57.6Z" fill="white"/>
</g>
<defs>
<clipPath id="clip0_80_54">
<rect width="128" height="128" fill="white" transform="matrix(0 1 -1 0 128 0)"/>
</clipPath>
</defs>
</svg>
