<svg width="102" height="128" viewBox="0 0 102 128" fill="none" xmlns="http://www.w3.org/2000/svg">
<path d="M50.5233 80.8421C62.5052 80.8421 72.1774 71.8147 72.1774 60.6316V20.2105C72.1774 9.02737 62.5052 0 50.5233 0C38.5413 0 28.8691 9.02737 28.8691 20.2105V60.6316C28.8691 71.8147 38.5413 80.8421 50.5233 80.8421Z" fill="white"/>
<path d="M86.6165 60.6313C86.6165 79.225 70.4481 94.3156 50.5263 94.3156C30.6045 94.3156 14.4361 79.225 14.4361 60.6313H0C0 84.4124 18.8391 103.949 43.3083 107.25V128H57.7444V107.25C82.2135 103.949 101.053 84.4124 101.053 60.6313H86.6165Z" fill="white"/>
</svg>
